<svg width="47" height="47" viewBox="0 0 47 47" fill="none" xmlns="http://www.w3.org/2000/svg">
<path d="M17.5212 17.4215C17.5212 14.7158 15.6809 14.7158 15.6809 14.7158H8.12305V20.5165H15.2123C16.4367 20.5165 17.5212 20.1234 17.5212 17.4215ZM15.6809 24.5259H8.12305V31.4715H15.3408C16.4253 31.4413 18.4319 31.0936 18.4319 28.0932C18.4206 24.5032 15.6809 24.5259 15.6809 24.5259ZM35.0554 20.5165C31.0384 20.5165 30.4791 24.5221 30.4791 24.5221H39.0194C39.0194 24.5221 39.0723 20.5165 35.0554 20.5165Z" fill="white"/>
<path d="M41.2242 0H5.51343C4.05118 0 2.64882 0.580878 1.61485 1.61485C0.580878 2.64882 0 4.05118 0 5.51343V41.2204C0 42.6826 0.580878 44.085 1.61485 45.119C2.64882 46.1529 4.05118 46.7338 5.51343 46.7338H41.2204C42.6826 46.7338 44.085 46.1529 45.119 45.119C46.1529 44.085 46.7338 42.6826 46.7338 41.2204V5.51343C46.7338 4.05183 46.1535 2.65004 45.1203 1.61618C44.0872 0.582322 42.6858 0.00100178 41.2242 0ZM29.3622 11.6239H40.0867V14.8285H29.3622V11.6239ZM23.9394 28.4174C23.9394 36.3531 15.6825 36.0924 15.6825 36.0924H2.15398V10.0935H15.6825C19.7939 10.0935 23.04 12.3608 23.04 17.0164C23.04 21.6721 19.0722 21.963 19.0722 21.963C24.3022 21.963 23.9394 28.4174 23.9394 28.4174ZM44.0017 27.9942H30.5487C30.5487 32.8236 35.125 32.5289 35.125 32.5289C39.4443 32.5289 39.2818 29.7325 39.2818 29.7325H43.8505C43.8505 37.1543 34.9549 36.6441 34.9549 36.6441C24.2795 36.6441 24.9673 26.7056 24.9673 26.7056C24.9673 26.7056 24.9673 16.7179 34.9549 16.7179C45.4792 16.7104 44.0054 27.9942 44.0054 27.9942H44.0017Z" fill="white"/>
</svg>
