<svg width="23" height="23" viewBox="0 0 23 23" fill="none" xmlns="http://www.w3.org/2000/svg">
<path d="M16.0448 14.6137L15.4634 15.2C15.4634 15.2 14.0796 16.5925 10.3037 12.7903C6.52794 8.98816 7.91176 7.59568 7.91176 7.59568L8.27721 7.22556C9.18059 6.31708 9.2662 4.8573 8.47781 3.79094L6.86783 1.61292C5.89161 0.292913 4.0069 0.118206 2.88885 1.2441L0.882755 3.26294C0.329481 3.822 -0.0410726 4.54412 0.00364931 5.34648C0.118649 7.40026 1.03609 11.8171 6.15227 16.9703C11.579 22.4342 16.6709 22.6516 18.7524 22.4549C19.4117 22.3927 19.9841 22.0537 20.4454 21.5878L22.2598 19.7605C23.4865 18.5272 23.1415 16.4113 21.5724 15.5481L19.1319 14.2035C18.102 13.638 16.8498 13.8036 16.0448 14.6137Z" fill="#4949E6"/>
</svg>
