<svg width="23" height="22" viewBox="0 0 23 22" fill="none" xmlns="http://www.w3.org/2000/svg">
<path d="M16.0448 14.1137L15.4634 14.7C15.4634 14.7 14.0796 16.0925 10.3037 12.2903C6.52794 8.48816 7.91176 7.09568 7.91176 7.09568L8.27721 6.72556C9.18059 5.81708 9.2662 4.3573 8.47781 3.29094L6.86782 1.11292C5.89161 -0.207087 4.0069 -0.381794 2.88885 0.744097L0.882755 2.76294C0.329481 3.322 -0.0410726 4.04412 0.00364931 4.84648C0.118649 6.90026 1.03609 11.3171 6.15227 16.4703C11.579 21.9342 16.6709 22.1516 18.7524 21.9549C19.4117 21.8927 19.9841 21.5537 20.4454 21.0878L22.2598 19.2605C23.4865 18.0272 23.1415 15.9113 21.5724 15.0481L19.1319 13.7035C18.102 13.138 16.8498 13.3036 16.0448 14.1137Z" fill="white"/>
</svg>
