<svg width="24" height="24" viewBox="0 0 24 24" fill="none" xmlns="http://www.w3.org/2000/svg">
<path d="M23.7804 19.2806L16.4998 12L23.7804 4.71936C23.9199 4.57814 23.9982 4.38764 23.9982 4.18913C23.9982 3.99063 23.9199 3.80013 23.7804 3.65891L20.3411 0.219579C20.2005 0.0789827 20.0097 0 19.8109 0C19.612 0 19.4213 0.0789827 19.2806 0.219579L12 7.50022L4.71936 0.219579C4.57872 0.0789827 4.388 0 4.18913 0C3.99027 0 3.79955 0.0789827 3.65891 0.219579L0.219579 3.65891C0.0789827 3.79955 0 3.99027 0 4.18913C0 4.388 0.0789827 4.57872 0.219579 4.71936L7.50022 12L0.219579 19.2806C0.0789827 19.4213 0 19.612 0 19.8109C0 20.0097 0.0789827 20.2005 0.219579 20.3411L3.65891 23.7804C3.79955 23.921 3.99027 24 4.18913 24C4.388 24 4.57872 23.921 4.71936 23.7804L12 16.4998L19.2806 23.7804C19.4213 23.921 19.612 24 19.8109 24C20.0097 24 20.2005 23.921 20.3411 23.7804L23.7804 20.3411C23.921 20.2005 24 20.0097 24 19.8109C24 19.612 23.921 19.4213 23.7804 19.2806Z" fill="#8B1E1E"/>
</svg>
