<svg width="25" height="25" viewBox="0 0 25 25" fill="none" xmlns="http://www.w3.org/2000/svg">
<path id="Vector" d="M24.2804 19.7806L16.9998 12.5L24.2804 5.21936C24.4199 5.07814 24.4982 4.88764 24.4982 4.68913C24.4982 4.49063 24.4199 4.30013 24.2804 4.15891L20.8411 0.719579C20.7005 0.578983 20.5097 0.5 20.3109 0.5C20.112 0.5 19.9213 0.578983 19.7806 0.719579L12.5 8.00022L5.21936 0.719579C5.07872 0.578983 4.888 0.5 4.68913 0.5C4.49027 0.5 4.29955 0.578983 4.15891 0.719579L0.719579 4.15891C0.578983 4.29955 0.5 4.49027 0.5 4.68913C0.5 4.888 0.578983 5.07872 0.719579 5.21936L8.00022 12.5L0.719579 19.7806C0.578983 19.9213 0.5 20.112 0.5 20.3109C0.5 20.5097 0.578983 20.7005 0.719579 20.8411L4.15891 24.2804C4.29955 24.421 4.49027 24.5 4.68913 24.5C4.888 24.5 5.07872 24.421 5.21936 24.2804L12.5 16.9998L19.7806 24.2804C19.9213 24.421 20.112 24.5 20.3109 24.5C20.5097 24.5 20.7005 24.421 20.8411 24.2804L24.2804 20.8411C24.421 20.7005 24.5 20.5097 24.5 20.3109C24.5 20.112 24.421 19.9213 24.2804 19.7806Z" fill="#FF1111"/>
</svg>
