<svg width="31" height="53" viewBox="0 0 31 53" fill="none" xmlns="http://www.w3.org/2000/svg">
<path id="Vector" d="M1.18544 1.16661C0.426401 1.91382 -1.29725e-06 2.92711 -1.28465e-06 3.98366C-1.27205e-06 5.04021 0.426401 6.05351 1.18544 6.80071L21.227 26.5241L1.18544 46.2474C0.447913 46.9989 0.039816 48.0054 0.0490409 49.0501C0.0582658 50.0948 0.484074 51.0942 1.23476 51.833C1.98544 52.5717 3.00093 52.9908 4.06252 52.9998C5.1241 53.0089 6.14684 52.6073 6.91045 51.8815L29.8146 29.3411C30.5736 28.5939 31 27.5806 31 26.5241C31 25.4675 30.5736 24.4542 29.8146 23.707L6.91045 1.16661C6.15119 0.419631 5.12154 3.08598e-07 4.04794 3.214e-07C2.97434 3.34203e-07 1.9447 0.419631 1.18544 1.16661Z" fill="#0101B1"/>
</svg>
