<svg width="31" height="53" viewBox="0 0 31 53" fill="none" xmlns="http://www.w3.org/2000/svg">
<path id="Vector" d="M29.8146 51.8334C30.5736 51.0862 31 50.0729 31 49.0163C31 47.9598 30.5736 46.9465 29.8146 46.1993L9.77296 26.4759L29.8146 6.7526C30.5521 6.00111 30.9602 4.99462 30.951 3.94989C30.9417 2.90516 30.5159 1.9058 29.7652 1.16703C29.0146 0.428273 27.9991 0.00923044 26.9375 0.000152039C25.8759 -0.00892637 24.8532 0.39269 24.0896 1.1185L1.18544 23.6589C0.426402 24.4061 3.28895e-07 25.4194 3.16296e-07 26.4759C3.03697e-07 27.5325 0.426402 28.5458 1.18544 29.293L24.0896 51.8334C24.8488 52.5804 25.8785 53 26.9521 53C28.0257 53 29.0553 52.5804 29.8146 51.8334Z" fill="#0101B1"/>
</svg>
