<svg width="48" height="47" viewBox="0 0 48 47" fill="none" xmlns="http://www.w3.org/2000/svg">
<path fill-rule="evenodd" clip-rule="evenodd" d="M10.8066 0.366699C8.13597 0.366699 5.57464 1.40478 3.68584 3.25269C1.79703 5.10059 0.735401 7.60703 0.734375 10.2209V36.5087C0.734375 39.1232 1.79556 41.6306 3.68447 43.4794C5.57339 45.3281 8.1353 46.3667 10.8066 46.3667H37.666C40.3366 46.3657 42.8976 45.3267 44.7856 43.478C46.6737 41.6294 47.7344 39.1226 47.7344 36.5087V10.2209C47.7333 7.60769 46.6722 5.10182 44.7843 3.25403C42.8963 1.40623 40.336 0.367703 37.666 0.366699H10.8066ZM40.5631 10.236C40.5631 10.989 40.2575 11.7112 39.7134 12.2437C39.1694 12.7761 38.4315 13.0753 37.6621 13.0753C36.8927 13.0753 36.1548 12.7761 35.6108 12.2437C35.0668 11.7112 34.7611 10.989 34.7611 10.236C34.7611 9.48299 35.0668 8.76081 35.6108 8.22834C36.1548 7.69587 36.8927 7.39674 37.6621 7.39674C38.4315 7.39674 39.1694 7.69587 39.7134 8.22834C40.2575 8.76081 40.5631 9.48299 40.5631 10.236ZM24.2402 15.4906C22.1064 15.4906 20.06 16.3202 18.5512 17.7969C17.0424 19.2736 16.1947 21.2764 16.1947 23.3648C16.1947 25.4532 17.0424 27.456 18.5512 28.9327C20.06 30.4094 22.1064 31.2391 24.2402 31.2391C26.374 31.2391 28.4203 30.4094 29.9292 28.9327C31.438 27.456 32.2856 25.4532 32.2856 23.3648C32.2856 21.2764 31.438 19.2736 29.9292 17.7969C28.4203 16.3202 26.374 15.4906 24.2402 15.4906ZM12.3229 23.3648C12.3229 20.2724 13.578 17.3066 15.8122 15.12C18.0464 12.9333 21.0767 11.7049 24.2363 11.7049C27.3959 11.7049 30.4262 12.9333 32.6604 15.12C34.8946 17.3066 36.1497 20.2724 36.1497 23.3648C36.1497 26.4572 34.8946 29.423 32.6604 31.6096C30.4262 33.7963 27.3959 35.0248 24.2363 35.0248C21.0767 35.0248 18.0464 33.7963 15.8122 31.6096C13.578 29.423 12.3229 26.4572 12.3229 23.3648Z" fill="white"/>
</svg>
