<svg width="47" height="46" viewBox="0 0 47 46" fill="none" xmlns="http://www.w3.org/2000/svg">
<path fill-rule="evenodd" clip-rule="evenodd" d="M10.0723 0C7.4016 -1.92738e-07 4.84027 1.03808 2.95146 2.88599C1.06266 4.7339 0.0010256 7.24033 0 9.85417V36.142C0 38.7565 1.06118 41.264 2.9501 43.1127C4.83901 44.9614 7.40093 46 10.0723 46H36.9316C39.6023 45.999 42.1632 44.96 44.0513 43.1113C45.9393 41.2627 47 38.7559 47 36.142V9.85417C46.999 7.24099 45.9379 4.73512 44.0499 2.88733C42.1619 1.03953 39.6016 0.00100333 36.9316 0H10.0723ZM39.8287 9.86931C39.8287 10.6223 39.5231 11.3445 38.9791 11.877C38.435 12.4094 37.6971 12.7086 36.9277 12.7086C36.1583 12.7086 35.4205 12.4094 34.8764 11.877C34.3324 11.3445 34.0267 10.6223 34.0267 9.86931C34.0267 9.11629 34.3324 8.39411 34.8764 7.86164C35.4205 7.32918 36.1583 7.03004 36.9277 7.03004C37.6971 7.03004 38.435 7.32918 38.9791 7.86164C39.5231 8.39411 39.8287 9.11629 39.8287 9.86931ZM23.5058 15.1239C21.372 15.1239 19.3256 15.9535 17.8168 17.4302C16.308 18.9069 15.4604 20.9097 15.4604 22.9981C15.4604 25.0865 16.308 27.0893 17.8168 28.566C19.3256 30.0427 21.372 30.8724 23.5058 30.8724C25.6396 30.8724 27.686 30.0427 29.1948 28.566C30.7036 27.0893 31.5512 25.0865 31.5512 22.9981C31.5512 20.9097 30.7036 18.9069 29.1948 17.4302C27.686 15.9535 25.6396 15.1239 23.5058 15.1239ZM11.5885 22.9981C11.5885 19.9057 12.8437 16.9399 15.0779 14.7533C17.3121 12.5666 20.3423 11.3382 23.5019 11.3382C26.6616 11.3382 29.6918 12.5666 31.926 14.7533C34.1602 16.9399 35.4154 19.9057 35.4154 22.9981C35.4154 26.0905 34.1602 29.0563 31.926 31.2429C29.6918 33.4296 26.6616 34.6581 23.5019 34.6581C20.3423 34.6581 17.3121 33.4296 15.0779 31.2429C12.8437 29.0563 11.5885 26.0905 11.5885 22.9981Z" fill="#A4CA45"/>
</svg>
