<svg width="47" height="47" viewBox="0 0 47 47" fill="none" xmlns="http://www.w3.org/2000/svg">
<path d="M41.7778 0.366699C43.1628 0.366699 44.4911 0.90519 45.4704 1.86371C46.4498 2.82223 47 4.12226 47 5.47781V41.2556C47 42.6111 46.4498 43.9112 45.4704 44.8697C44.4911 45.8282 43.1628 46.3667 41.7778 46.3667H5.22222C3.8372 46.3667 2.50891 45.8282 1.52955 44.8697C0.550197 43.9112 0 42.6111 0 41.2556V5.47781C0 4.12226 0.550197 2.82223 1.52955 1.86371C2.50891 0.90519 3.8372 0.366699 5.22222 0.366699H41.7778ZM40.4722 39.9778V26.4334C40.4722 24.2238 39.5754 22.1048 37.979 20.5424C36.3827 18.98 34.2176 18.1023 31.96 18.1023C29.7406 18.1023 27.1556 19.4311 25.9022 21.4245V18.5878H18.6172V39.9778H25.9022V27.3789C25.9022 25.4111 27.5211 23.8011 29.5317 23.8011C30.5012 23.8011 31.431 24.1781 32.1165 24.8491C32.8021 25.52 33.1872 26.43 33.1872 27.3789V39.9778H40.4722ZM10.1311 14.5756C11.2945 14.5756 12.4103 14.1233 13.233 13.3181C14.0556 12.5129 14.5178 11.4209 14.5178 10.2823C14.5178 7.90559 12.5594 5.96337 10.1311 5.96337C8.96077 5.96337 7.83836 6.41839 7.01081 7.22834C6.18325 8.03829 5.71833 9.13682 5.71833 10.2823C5.71833 12.6589 7.70278 14.5756 10.1311 14.5756ZM13.7606 39.9778V18.5878H6.52778V39.9778H13.7606Z" fill="white"/>
</svg>
